inDegrees=yes
name=ik_MT_2026-09-03_16h27_01210270-001-000_orientations
DataType=double
version=3
OpenSimVersion=4.5
endheader
time	pelvis_tilt	pelvis_list	pelvis_rotation	pelvis_tx	pelvis_ty	pelvis_tz	hip_flexion_r	hip_adduction_r	hip_rotation_r	knee_angle_r	knee_angle_r_beta	ankle_angle_r	subtalar_angle_r	mtp_angle_r	hip_flexion_l	hip_adduction_l	hip_rotation_l	knee_angle_l	knee_angle_l_beta	ankle_angle_l	subtalar_angle_l	mtp_angle_l	lumbar_extension	lumbar_bending	lumbar_rotation	arm_flex_r	arm_add_r	arm_rot_r	elbow_flex_r	pro_sup_r	wrist_flex_r	wrist_dev_r	arm_flex_l	arm_add_l	arm_rot_l	elbow_flex_l	pro_sup_l	wrist_flex_l	wrist_dev_l
49.1	-0.03309477395458323	2.504867725983603	-593.5169712390203	0	0.9399999999999999	0	-6.382711251656068	9.659514000584668	-0.5544340121214105	-18.48650797114616	-0.3226504312926775	-4.399545291194221	0	0	11.00165503008424	-30.34047007778355	5.821857637880614	53.78999980665557	0.9388126012732529	19.40472363285618	0	0	3.223973374311454	4.938806813695605	-21.65236925965348	7.617053803422687	-14.51330497574112	48.73789896537112	0.01869682791400463	44.99981415017752	0	0	9.285748454549791	-3.604878911893521	-7.468785064309609	6.424273237111705	44.99981415017752	0	0
49.125	-0.2748108041025992	3.166464024259287	-594.6546631170243	0	0.9399999999999999	0	-7.959266981225069	9.910127207690053	0.9735017500884243	-18.53263532688231	-0.3234555055255118	-3.765120982734424	0	0	13.55024546412043	-29.05459815747388	7.863802424389771	53.21417590835078	0.9287625783361654	18.66692969062584	0	0	2.399887902949069	5.508315084285532	-21.87960007300639	9.200182422029247	-14.19312262409354	49.34732892109206	0.01937328405053096	44.99981488432652	0	0	9.158994922828217	-3.617190563560822	-8.28852347596432	6.231861354136698	44.99981488432652	0	0
49.15	-0.9822932835133202	3.867649084194472	-596.0142985911612	0	0.9399999999999999	0	-9.824912630515945	9.630022597384428	2.373524661018667	-18.4395730646763	-0.3218312626406628	-3.120510623860278	0	0	15.69768891878578	-27.01150947302798	9.675979846300486	52.31842769357476	0.9131288227194625	17.80672216279703	0	0	1.247079069001005	5.703660055534805	-21.86462474506182	10.77223604980403	-13.78179344607891	50.03547061934533	0.02006989128414602	44.99981555992091	0	0	8.829971221991707	-3.453741827400704	-8.915860283811618	6.119464483487848	44.99981555992091	0	0
49.175	-1.886286574867756	4.54923053382567	-597.4437745968851	0	0.9399999999999999	0	-11.70073575807352	9.121237857205331	3.282385892268302	-18.2360534493186	-0.3182791752602784	-2.490916938935078	0	0	17.74900098518796	-24.62383720564995	11.15686678411921	51.08593553666184	0.8916177765763256	16.97044048431483	0	0	-0.01729814427417151	5.555071607406889	-21.68817010502222	12.22175665435452	-13.2863983024088	50.71129746373758	0.02083148278752753	44.99981629873193	0	0	8.38884497150827	-3.205881955971732	-9.190553468484547	6.100465590124687	44.99981629873193	0	0
49.2	-2.611559217879208	4.883620103143508	-598.8603419778547	0	0.9399999999999999	0	-12.93206622030618	8.448851293218327	3.610424917570949	-17.7506773587347	-0.3098077643691311	-1.910116894148185	0	0	19.86298878523931	-22.1685890303904	11.96181806581052	48.72205516434152	0.8503602809560664	15.66160085696356	0	0	-0.9472134404443792	5.19916068002806	-21.50173219666427	13.67186664638939	-12.75562393045706	51.41547303651229	0.02168326151631511	44.99981728436819	0	0	7.960582081067199	-3.072346201933587	-9.288560758953913	6.095119449442426	44.99981728436819	0	0
49.225	-2.91179000678285	4.852387358273787	-600.2858456633556	0	0.9399999999999999	0	-13.51032857889146	7.878789001724377	4.011238199727842	-17.16639659355296	-0.2996101412606379	-1.332497475218998	0	0	22.10388923682965	-19.68751031334692	12.10502312407803	45.7942196805466	0.7992599118071241	13.97853760630035	0	0	-1.418608702350178	4.962527913772966	-21.38151780596972	15.18990496338861	-12.27414062978095	52.29640651681741	0.02252622293985811	44.99981788203938	0	0	7.672075794546218	-3.09764226221979	-9.567456353968579	6.138637297687218	44.99981788203938	0	0
49.25	-2.900092735991521	4.683801792185176	-601.6555126736238	0	0.9399999999999999	0	-13.84802546142272	7.546210524969367	4.59477217755826	-16.70658872945754	-0.2915849801056103	-0.6877647440728394	0	0	24.18672570869278	-17.19377388457634	11.89229021051669	42.32195489019424	0.7386574587144047	11.93976802790371	0	0	-1.550427950687193	4.912845546031104	-21.36416298293712	16.57767432728937	-11.80225542762482	53.33185844210435	0.02333490734591955	44.9998185958535	0	0	7.445670191825454	-3.247949258060146	-10.10121607589325	6.196861607709502	44.9998185958535	0	0
49.275	-2.774700734904156	4.584141963883472	-603.0326145639322	0	0.9399999999999999	0	-14.38827307793224	7.318181343939052	5.371212135652671	-16.45704317279026	-0.2872295885080441	-0.03844181093622553	0	0	26.03752335738185	-14.41872323494851	11.44913921814471	38.13507326620719	0.6655825889845834	8.45559480068929	0	0	-1.713167353445893	4.990405252617787	-21.31361482288123	17.90019099741274	-11.34902538807423	54.40863295253144	0.02405093044067846	44.99981937322936	0	0	7.253316785577871	-3.378522620603025	-10.72934761243809	6.270686734041838	44.99981937322936	0	0
